<mxfile host="app.diagrams.net" modified="2024-06-06T13:02:50.648Z" agent="Mozilla/5.0 (Macintosh; Intel Mac OS X 10.15; rv:126.0) Gecko/20100101 Firefox/126.0" version="24.4.14" etag="YySpm8OMXBTFHY9ncqKc" type="github">
  <diagram name="PÃ¡gina-1" id="p936Z_GSKwabgAD0SgL5">
    <mxGraphModel>
      <root>
        <mxCell id="0" />
        <mxCell id="1" parent="0" />
      </root>
    </mxGraphModel>
  </diagram>
</mxfile>
